<svg xmlns="http://www.w3.org/2000/svg" xmlns:xlink="http://www.w3.org/1999/xlink" width="180" viewBox="0 0 180 36" height="36" version="1.0"><defs><g id="a"><path d="M 0.496094 -0.695312 C 0.296875 -0.230469 0.496094 0 0.929688 0 L 4.578125 0 C 4.941406 0 5.242188 -0.164062 5.40625 -0.597656 L 6.964844 -4.578125 L 17.152344 -4.578125 L 18.742188 -0.597656 C 18.910156 -0.164062 19.175781 0 19.570312 0 L 23.1875 0 C 23.621094 0 23.851562 -0.265625 23.652344 -0.695312 L 14.296875 -23.984375 C 14.132812 -24.414062 13.832031 -24.613281 13.46875 -24.613281 L 10.683594 -24.613281 C 10.351562 -24.613281 10.050781 -24.414062 9.851562 -23.984375 Z M 12.074219 -18.246094 L 15.558594 -8.855469 L 8.527344 -8.855469 Z M 12.074219 -18.246094"/></g><g id="b"><path d="M 2.6875 -0.664062 C 2.6875 -0.230469 2.886719 0 3.316406 0 L 15.125 0 C 18.875 0 21.894531 -3.316406 21.894531 -7.132812 C 21.894531 -9.585938 20.734375 -11.910156 18.84375 -13.167969 C 20.101562 -14.265625 20.734375 -15.855469 20.734375 -17.746094 C 20.734375 -21.59375 17.8125 -24.613281 14.03125 -24.613281 L 3.316406 -24.613281 C 2.886719 -24.613281 2.6875 -24.414062 2.6875 -23.984375 Z M 13.734375 -10.8125 C 15.425781 -10.8125 16.953125 -9.289062 16.953125 -7.332031 C 16.953125 -5.738281 15.855469 -4.046875 13.800781 -4.046875 L 7.53125 -4.046875 L 7.53125 -10.8125 Z M 12.773438 -20.632812 C 14.664062 -20.632812 15.921875 -19.4375 15.921875 -17.648438 C 15.921875 -15.789062 14.664062 -14.628906 12.738281 -14.628906 L 7.53125 -14.628906 L 7.53125 -20.632812 Z M 12.773438 -20.632812"/></g><g id="c"><path d="M 18.84375 -5.738281 C 17.679688 -4.84375 15.988281 -4.179688 14.199219 -4.179688 C 9.71875 -4.179688 6.371094 -7.863281 6.371094 -12.339844 C 6.371094 -16.851562 9.71875 -20.367188 14.199219 -20.367188 C 15.988281 -20.367188 17.382812 -19.804688 18.941406 -18.84375 C 19.140625 -18.742188 19.308594 -18.675781 19.472656 -18.675781 C 19.636719 -18.675781 19.769531 -18.742188 19.871094 -18.875 L 21.628906 -21.859375 C 21.726562 -22.027344 21.761719 -22.390625 21.429688 -22.691406 C 19.503906 -24.082031 17.183594 -24.980469 14.199219 -24.980469 C 7.164062 -24.980469 1.460938 -19.371094 1.460938 -12.339844 C 1.460938 -5.308594 7.164062 0.363281 14.199219 0.363281 C 17.183594 0.363281 19.503906 -0.53125 21.398438 -1.957031 C 21.792969 -2.253906 21.894531 -2.519531 21.5625 -2.917969 L 19.902344 -5.738281 C 19.769531 -5.90625 19.605469 -6.003906 19.4375 -6.003906 C 19.242188 -6.003906 19.042969 -5.90625 18.84375 -5.738281 Z M 18.84375 -5.738281"/></g><g id="d"><path d="M 1.941406 -0.988281 L 1.941406 -8.367188 C 1.941406 -8.53125 1.835938 -8.621094 1.683594 -8.621094 L 1.207031 -8.621094 C 1.035156 -8.621094 0.941406 -8.507812 0.941406 -8.367188 L 0.941406 -0.253906 C 0.941406 -0.0820312 1.023438 0 1.195312 0 L 6.136719 0 C 6.285156 0 6.390625 -0.117188 6.390625 -0.253906 L 6.390625 -0.71875 C 6.390625 -0.894531 6.273438 -0.988281 6.136719 -0.988281 Z M 1.941406 -0.988281"/></g><g id="e"><path d="M 1.195312 -8.621094 C 1.035156 -8.621094 0.941406 -8.53125 0.941406 -8.355469 L 0.941406 -0.242188 C 0.941406 -0.0703125 1.035156 0 1.195312 0 L 6.832031 0 C 6.996094 0 7.089844 -0.09375 7.089844 -0.253906 L 7.089844 -0.730469 C 7.089844 -0.917969 6.996094 -1.011719 6.820312 -1.011719 L 1.941406 -1.011719 L 1.941406 -4.03125 L 5.785156 -4.03125 C 5.949219 -4.03125 6.042969 -4.160156 6.042969 -4.300781 L 6.042969 -4.777344 C 6.042969 -4.960938 5.925781 -5.042969 5.785156 -5.042969 L 1.941406 -5.042969 L 1.941406 -7.609375 L 6.773438 -7.609375 C 6.949219 -7.609375 7.042969 -7.738281 7.042969 -7.878906 L 7.042969 -8.355469 C 7.042969 -8.539062 6.949219 -8.621094 6.785156 -8.621094 Z M 1.195312 -8.621094"/></g><g id="f"><path d="M 2 -1.882812 L 6.226562 -1.882812 L 6.902344 -0.222656 C 6.949219 -0.09375 7.066406 0 7.214844 0 L 7.714844 0 C 7.867188 0 7.972656 -0.0585938 7.972656 -0.1875 C 7.972656 -0.230469 7.9375 -0.324219 7.9375 -0.324219 L 4.589844 -8.414062 C 4.554688 -8.496094 4.496094 -8.621094 4.300781 -8.621094 L 3.960938 -8.621094 C 3.753906 -8.621094 3.707031 -8.496094 3.671875 -8.414062 C 3.671875 -8.402344 3.660156 -8.402344 0.300781 -0.335938 C 0.300781 -0.335938 0.277344 -0.265625 0.277344 -0.1875 C 0.277344 -0.0585938 0.359375 0 0.523438 0 L 1.023438 0 C 1.183594 0 1.277344 -0.0703125 1.347656 -0.230469 Z M 4.125 -7.125 L 5.820312 -2.871094 L 2.417969 -2.871094 Z M 4.125 -7.125"/></g><g id="g"><path d="M 6.285156 -5.890625 C 6.285156 -4.949219 5.542969 -4.148438 4.566406 -4.148438 L 1.941406 -4.148438 L 1.941406 -7.632812 L 4.554688 -7.632812 C 5.53125 -7.632812 6.285156 -6.808594 6.285156 -5.890625 Z M 0.941406 -0.253906 C 0.941406 -0.0820312 1.035156 0 1.195312 0 L 1.683594 0 C 1.859375 0 1.941406 -0.0820312 1.941406 -0.253906 L 1.941406 -3.160156 L 3.972656 -3.160156 C 4.125 -3.160156 4.613281 -3.160156 4.695312 -3.171875 L 6.101562 -0.222656 C 6.171875 -0.0820312 6.25 0 6.402344 0 L 7.042969 0 C 7.179688 0 7.25 -0.0585938 7.25 -0.152344 C 7.25 -0.175781 7.238281 -0.210938 7.226562 -0.253906 L 5.695312 -3.40625 C 6.636719 -3.835938 7.285156 -4.789062 7.285156 -5.878906 C 7.285156 -7.390625 6.078125 -8.621094 4.554688 -8.621094 L 1.195312 -8.621094 C 1.035156 -8.621094 0.941406 -8.53125 0.941406 -8.34375 Z M 0.941406 -0.253906"/></g><g id="h"><path d="M 8.007812 0 C 8.191406 0 8.285156 -0.09375 8.285156 -0.253906 L 8.285156 -8.367188 C 8.285156 -8.519531 8.144531 -8.621094 8.007812 -8.621094 L 7.53125 -8.621094 C 7.390625 -8.621094 7.296875 -8.539062 7.273438 -8.402344 L 7.273438 -1.71875 L 2.058594 -8.507812 C 2 -8.585938 1.929688 -8.621094 1.835938 -8.621094 L 1.195312 -8.621094 C 1.046875 -8.621094 0.941406 -8.507812 0.941406 -8.355469 L 0.941406 -0.253906 C 0.941406 -0.0820312 1.023438 0 1.195312 0 L 1.671875 0 C 1.859375 0 1.941406 -0.0820312 1.941406 -0.253906 L 1.941406 -7.066406 L 7.238281 -0.105469 C 7.296875 -0.0351562 7.378906 0 7.460938 0 Z M 8.007812 0"/></g><g id="i"><path d="M 1.941406 -8.367188 C 1.941406 -8.519531 1.835938 -8.621094 1.683594 -8.621094 L 1.195312 -8.621094 C 1.035156 -8.621094 0.941406 -8.53125 0.941406 -8.367188 L 0.941406 -0.253906 C 0.941406 -0.0820312 1.023438 0 1.195312 0 L 1.683594 0 C 1.847656 0 1.941406 -0.0820312 1.941406 -0.253906 Z M 1.941406 -8.367188"/></g><g id="j"><path d="M 6.761719 -1.40625 C 6.425781 -1.160156 5.753906 -0.882812 4.949219 -0.882812 C 3.101562 -0.882812 1.523438 -2.382812 1.523438 -4.289062 C 1.523438 -6.078125 2.953125 -7.714844 4.960938 -7.714844 C 5.71875 -7.714844 6.449219 -7.449219 7.019531 -7.042969 C 7.101562 -6.972656 7.179688 -6.949219 7.238281 -6.949219 C 7.308594 -6.949219 7.378906 -6.996094 7.4375 -7.089844 L 7.691406 -7.507812 C 7.714844 -7.542969 7.726562 -7.589844 7.726562 -7.632812 C 7.726562 -7.925781 6.9375 -8.285156 6.542969 -8.4375 C 6.042969 -8.632812 5.507812 -8.738281 4.949219 -8.738281 C 2.5 -8.738281 0.511719 -6.738281 0.511719 -4.300781 C 0.511719 -1.847656 2.488281 0.128906 4.9375 0.128906 C 5.949219 0.128906 6.867188 -0.175781 7.589844 -0.707031 L 7.609375 -0.730469 C 7.738281 -0.8125 7.773438 -0.894531 7.773438 -0.976562 L 7.773438 -3.554688 C 7.773438 -3.71875 7.644531 -3.8125 7.507812 -3.8125 L 7.019531 -3.8125 C 6.84375 -3.8125 6.761719 -3.71875 6.761719 -3.554688 Z M 6.761719 -1.40625"/></g><g id="k"><path d="M 7.589844 -7.867188 C 6.832031 -8.425781 5.925781 -8.738281 4.949219 -8.738281 C 2.5 -8.738281 0.511719 -6.75 0.511719 -4.300781 C 0.511719 -1.847656 2.488281 0.128906 4.9375 0.128906 C 5.960938 0.128906 6.855469 -0.199219 7.589844 -0.730469 C 7.667969 -0.777344 7.714844 -0.847656 7.714844 -0.929688 C 7.714844 -0.976562 7.703125 -1.035156 7.679688 -1.09375 L 7.414062 -1.535156 C 7.34375 -1.636719 7.285156 -1.671875 7.214844 -1.671875 C 7.113281 -1.671875 6.9375 -1.488281 6.785156 -1.417969 C 6.101562 -1 5.554688 -0.871094 4.960938 -0.871094 C 3.160156 -0.871094 1.523438 -2.359375 1.523438 -4.289062 C 1.523438 -6.113281 2.953125 -7.714844 4.984375 -7.714844 C 5.695312 -7.714844 6.425781 -7.460938 7.007812 -7.042969 C 7.101562 -6.984375 7.167969 -6.960938 7.214844 -6.949219 C 7.285156 -6.949219 7.355469 -7.007812 7.414062 -7.089844 L 7.65625 -7.472656 C 7.691406 -7.519531 7.738281 -7.601562 7.738281 -7.667969 C 7.738281 -7.75 7.679688 -7.808594 7.589844 -7.867188 Z M 7.589844 -7.867188"/></g><g id="l"><path d="M 0.511719 -8.621094 C 0.347656 -8.621094 0.242188 -8.519531 0.242188 -8.367188 L 0.242188 -7.890625 C 0.242188 -7.703125 0.347656 -7.609375 0.511719 -7.609375 L 2.996094 -7.609375 L 2.996094 -0.253906 C 2.996094 -0.105469 3.113281 0 3.265625 0 L 3.742188 0 C 3.917969 0 4.007812 -0.117188 4.007812 -0.253906 L 4.007812 -7.609375 L 6.484375 -7.609375 C 6.671875 -7.609375 6.761719 -7.738281 6.761719 -7.890625 L 6.761719 -8.367188 C 6.75 -8.539062 6.625 -8.621094 6.484375 -8.621094 Z M 0.511719 -8.621094"/></g></defs><g fill="#2E2D2D"><use x="13.829" y="29.982" xmlns:xlink="http://www.w3.org/1999/xlink" xlink:href="#a" xlink:type="simple" xlink:actuate="onLoad" xlink:show="embed"/></g><g fill="#8C52FF"><use x="39.491" y="29.982" xmlns:xlink="http://www.w3.org/1999/xlink" xlink:href="#b" xlink:type="simple" xlink:actuate="onLoad" xlink:show="embed"/></g><g fill="#2E2D2D"><use x="63.897" y="29.982" xmlns:xlink="http://www.w3.org/1999/xlink" xlink:href="#c" xlink:type="simple" xlink:actuate="onLoad" xlink:show="embed"/></g><g fill="#2E2D2D"><use x="89.77" y="13.981" xmlns:xlink="http://www.w3.org/1999/xlink" xlink:href="#d" xlink:type="simple" xlink:actuate="onLoad" xlink:show="embed"/></g><g fill="#2E2D2D"><use x="98.799" y="13.981" xmlns:xlink="http://www.w3.org/1999/xlink" xlink:href="#e" xlink:type="simple" xlink:actuate="onLoad" xlink:show="embed"/></g><g fill="#8C52FF"><use x="108.615" y="13.981" xmlns:xlink="http://www.w3.org/1999/xlink" xlink:href="#f" xlink:type="simple" xlink:actuate="onLoad" xlink:show="embed"/></g><g fill="#2E2D2D"><use x="119.291" y="13.981" xmlns:xlink="http://www.w3.org/1999/xlink" xlink:href="#g" xlink:type="simple" xlink:actuate="onLoad" xlink:show="embed"/></g><g fill="#2E2D2D"><use x="129.447" y="13.981" xmlns:xlink="http://www.w3.org/1999/xlink" xlink:href="#h" xlink:type="simple" xlink:actuate="onLoad" xlink:show="embed"/></g><g fill="#2E2D2D"><use x="140.998" y="13.981" xmlns:xlink="http://www.w3.org/1999/xlink" xlink:href="#i" xlink:type="simple" xlink:actuate="onLoad" xlink:show="embed"/></g><g fill="#8C52FF"><use x="146.238" y="13.981" xmlns:xlink="http://www.w3.org/1999/xlink" xlink:href="#h" xlink:type="simple" xlink:actuate="onLoad" xlink:show="embed"/></g><g fill="#2E2D2D"><use x="157.78" y="13.981" xmlns:xlink="http://www.w3.org/1999/xlink" xlink:href="#j" xlink:type="simple" xlink:actuate="onLoad" xlink:show="embed"/></g><g fill="#8C52FF"><use x="89.77" y="29.607" xmlns:xlink="http://www.w3.org/1999/xlink" xlink:href="#k" xlink:type="simple" xlink:actuate="onLoad" xlink:show="embed"/></g><g fill="#2E2D2D"><use x="100.313" y="29.607" xmlns:xlink="http://www.w3.org/1999/xlink" xlink:href="#e" xlink:type="simple" xlink:actuate="onLoad" xlink:show="embed"/></g><g fill="#2E2D2D"><use x="110.132" y="29.607" xmlns:xlink="http://www.w3.org/1999/xlink" xlink:href="#h" xlink:type="simple" xlink:actuate="onLoad" xlink:show="embed"/></g><g fill="#2E2D2D"><use x="121.683" y="29.607" xmlns:xlink="http://www.w3.org/1999/xlink" xlink:href="#l" xlink:type="simple" xlink:actuate="onLoad" xlink:show="embed"/></g><g fill="#8C52FF"><use x="131.133" y="29.607" xmlns:xlink="http://www.w3.org/1999/xlink" xlink:href="#e" xlink:type="simple" xlink:actuate="onLoad" xlink:show="embed"/></g><g fill="#2E2D2D"><use x="140.944" y="29.607" xmlns:xlink="http://www.w3.org/1999/xlink" xlink:href="#g" xlink:type="simple" xlink:actuate="onLoad" xlink:show="embed"/></g></svg>